<svg xmlns="http://www.w3.org/2000/svg" viewBox="0 0 24 24" fill="none" stroke="#ca8a04" stroke-width="2" stroke-linecap="round" stroke-linejoin="round" width="24" height="24" aria-hidden="true">
  <path d="M 13 12 C 13 13.104569 12.10457 14 11 14 C 9.895431 14 9 13.104569 9 12 C 9 10.89543 9.895431 10 11 10 C 12.10457 10 13 10.89543 13 12 Z" />
  <path d="M 11 6 L 11 10" />
  <path d="M 17 12 L 13 12" />
  <path d="M 6 12 L 9 12" />
  <path d="M 16.000002 7.000002 L 12.999999 9.999999" />
  <path d="M 21 20 C 21 21.104568 20.10457 22 19 22 C 17.89543 22 17 21.104568 17 20 C 17 18.895432 17.89543 18 19 18 C 20.10457 18 21 18.895432 21 20 Z" />
  <path d="M 6 19 C 6 20.104568 5.104569 21 4 21 C 2.895431 21 2 20.104568 2 19 C 2 17.895432 2.895431 17 4 17 C 5.104569 17 6 17.895432 6 19 Z" />
  <path d="M 6 12 C 6 13.104568 5.104569 14 4 14 C 2.895431 14 2 13.104568 2 12 C 2 10.895432 2.895431 10 4 10 C 5.104569 10 6 10.895432 6 12 Z" />
  <path d="M 13 4 C 13 5.104568 12.104569 6 11 6 C 9.895431 6 9 5.104568 9 4 C 9 2.895432 9.895431 2 11 2 C 12.104569 2 13 2.895432 13 4 Z" />
  <path d="M 20 5 C 20 6.104568 19.10457 7 18 7 C 16.89543 7 16 6.104568 16 5 C 16 3.895432 16.89543 3 18 3 C 19.10457 3 20 3.895432 20 5 Z" />
  <path d="M 21 12 C 21 13.104568 20.10457 14 19 14 C 17.89543 14 17 13.104568 17 12 C 17 10.895432 17.89543 10 19 10 C 20.10457 10 21 10.895432 21 12 Z" />
  <path d="M 16.999956 18.00005 L 13.000009 13.999991" />
  <path d="M 5.999974 16.999985 L 9.000002 14.000002" />
</svg>
